<svg width="241" height="241" viewBox="0 0 241 241" fill="none" xmlns="http://www.w3.org/2000/svg">
<rect x="0.511719" y="0.230225" width="239.796" height="239.796" fill="#07162B"/>
<path d="M123.336 141.628C136.524 141.628 147.215 131.106 147.215 118.128C147.215 105.149 136.524 94.6278 123.336 94.6278C110.149 94.6278 99.4578 105.149 99.4578 118.128C99.4578 131.106 110.149 141.628 123.336 141.628Z" fill="#A6CE39"/>
<path fill-rule="evenodd" clip-rule="evenodd" d="M161.199 136.572C160.629 136.947 159.867 136.198 160.343 135.636C172.33 121.873 176.421 105.488 169.286 93.3171C160.533 78.337 137.416 75.2473 115.25 83.2991C91.4666 91.9127 75.9598 109.608 79.0992 127.49C85.378 164.192 159.582 161.008 185.363 158.949C186.124 158.855 186.315 159.978 185.554 160.166C119.246 175.052 60.7385 166.064 52.0813 133.202C43.8047 101.65 91.752 83.2055 113.347 77.6816C142.934 70.0979 180.797 70.2852 188.503 91.5382C193.545 105.301 182.129 122.809 161.199 136.572Z" fill="#A6CE39"/>
</svg>
