<svg width="18" height="17" viewBox="0 0 18 17" fill="none" xmlns="http://www.w3.org/2000/svg">
<path d="M13.1902 5.24721H6.92668L9.17006 3.34482C9.85205 2.77052 9.92384 1.74754 9.34953 1.06555C8.77523 0.383564 7.75225 0.311776 7.07026 0.886081L1.50668 5.64205C1.14774 5.94714 0.932373 6.39582 0.932373 6.86244C0.932373 7.32907 1.14774 7.77774 1.50668 8.08284L7.10615 12.8209C7.41125 13.0721 7.78814 13.1977 8.14708 13.1977C8.59576 13.1977 9.06238 13.0003 9.38543 12.6234C9.95973 11.9415 9.87 10.9364 9.20595 10.3442L6.92668 8.47768H13.1902C14.0517 8.47768 14.7695 9.17761 14.7695 10.057V14.8848C14.7695 15.7821 15.4874 16.5 16.3848 16.5C17.2821 16.5 18 15.7821 18 14.8848V10.0391C17.9821 7.40085 15.8284 5.24721 13.1902 5.24721Z" fill="#A6CE39"/>
</svg>
