<svg width="109" height="109" viewBox="0 0 109 109" fill="none" xmlns="http://www.w3.org/2000/svg">
<rect x="0.548828" y="0.210815" width="108" height="108" fill="#07162B"/>
<path d="M55.8669 63.894C61.8064 63.894 66.6214 59.1554 66.6214 53.31C66.6214 47.4646 61.8064 42.726 55.8669 42.726C49.9274 42.726 45.1124 47.4646 45.1124 53.31C45.1124 59.1554 49.9274 63.894 55.8669 63.894Z" fill="#A6CE39"/>
<path fill-rule="evenodd" clip-rule="evenodd" d="M72.9199 61.6169C72.6628 61.7856 72.32 61.4483 72.5343 61.1953C77.9329 54.9967 79.7753 47.6174 76.5618 42.1356C72.62 35.3888 62.2082 33.9973 52.225 37.6237C41.5134 41.5031 34.5294 49.4727 35.9433 57.5267C38.7712 74.0563 72.1915 72.6226 83.8029 71.6949C84.1457 71.6528 84.2314 72.1588 83.8886 72.2431C54.0246 78.9477 27.6739 74.8997 23.7749 60.0989C20.0473 45.8885 41.6419 37.5815 51.3681 35.0937C64.6933 31.6781 81.7463 31.7624 85.2168 41.3344C87.4877 47.533 82.3461 55.4183 72.9199 61.6169Z" fill="#A6CE39"/>
</svg>
