<svg width="12" height="13" viewBox="0 0 12 13" fill="none" xmlns="http://www.w3.org/2000/svg">
<path d="M2.13417 0.805293C1.92533 0.805293 1.7163 0.885206 1.55627 1.04523L0.545241 2.05626C0.225191 2.37631 0.225191 2.89177 0.545241 3.21182L3.93919 6.60577L0.545241 9.99972C0.225191 10.3198 0.225191 10.8352 0.545241 11.1553L1.55627 12.1663C1.87632 12.4864 2.39178 12.4864 2.71183 12.1663L6.10578 8.77237L9.49973 12.1663C9.81978 12.4864 10.3352 12.4864 10.6553 12.1663L11.6663 11.1553C11.9864 10.8352 11.9864 10.3198 11.6663 9.99972L8.27238 6.60577L11.6663 3.21182C11.9864 2.89177 11.9864 2.37631 11.6663 2.05626L10.6553 1.04523C10.3352 0.725181 9.81978 0.725181 9.49973 1.04523L6.10578 4.43918L2.71183 1.04523C2.55181 0.885206 2.34301 0.805293 2.13417 0.805293Z" fill="#A6CE39"/>
</svg>
