<svg width="393" height="592" viewBox="0 0 393 592" fill="none" xmlns="http://www.w3.org/2000/svg">
<g clip-path="url(#clip0_118_1543)" filter="url(#filter0_ddddd_118_1543)">
<path d="M247.552 49.5523V27.6754C247.552 27.3788 247.815 27.1192 248.117 27.1192H252.525C252.676 27.1192 252.864 27.1934 252.939 27.3046L263.564 39.9487V27.6383C263.564 27.3417 263.828 27.0822 264.129 27.0822H269.178C269.479 27.0822 269.743 27.3417 269.743 27.6383V49.5152C269.743 49.8118 269.479 50.0714 269.178 50.0714H264.732C264.582 50.0714 264.393 49.9972 264.318 49.886L253.693 37.2419V49.5152C253.693 49.8118 253.429 50.0714 253.128 50.0714H248.079C247.815 50.1085 247.552 49.8489 247.552 49.5523Z" fill="#A6CE39"/>
<path d="M274.566 49.5523V27.6754C274.566 27.3788 274.83 27.1192 275.131 27.1192H292.236C292.538 27.1192 292.801 27.3788 292.801 27.6754V31.4204C292.801 31.7171 292.538 31.9766 292.236 31.9766H280.783V36.2037H290.805C291.106 36.2037 291.37 36.4632 291.37 36.7599V40.1712C291.37 40.4678 291.106 40.7274 290.805 40.7274H280.783V45.2511H292.688C292.99 45.2511 293.254 45.5106 293.254 45.8072V49.5523C293.254 49.8489 292.99 50.1085 292.688 50.1085H275.131C274.792 50.1085 274.566 49.8489 274.566 49.5523Z" fill="#A6CE39"/>
<path d="M302.936 49.5523V31.9766H296.192C295.891 31.9766 295.627 31.7171 295.627 31.4204V27.6383C295.627 27.3417 295.891 27.0822 296.192 27.0822H315.935C316.236 27.0822 316.5 27.3417 316.5 27.6383V31.3834C316.5 31.68 316.236 31.9396 315.935 31.9396H309.228V49.5152C309.228 49.8118 308.965 50.0714 308.663 50.0714H303.464C303.162 50.1085 302.936 49.8489 302.936 49.5523Z" fill="#A6CE39"/>
<path d="M105.097 47.105C110.319 47.105 114.553 42.9382 114.553 37.7981C114.553 32.658 110.319 28.4912 105.097 28.4912C99.8737 28.4912 95.6397 32.658 95.6397 37.7981C95.6397 42.9382 99.8737 47.105 105.097 47.105Z" fill="#A6CE39"/>
<path fill-rule="evenodd" clip-rule="evenodd" d="M120.092 45.1027C119.866 45.2511 119.564 44.9544 119.753 44.7319C124.5 39.2813 126.12 32.7924 123.294 27.9721C119.828 22.0394 110.673 20.8157 101.894 24.0046C92.4749 27.4159 86.3336 34.4239 87.5769 41.506C90.0636 56.0412 119.451 54.7805 129.662 53.9647C129.963 53.9276 130.038 54.3726 129.737 54.4468C103.476 60.3424 80.3053 56.7828 76.8768 43.7679C73.5989 31.2721 92.5879 23.9675 101.14 21.7798C112.858 18.7764 127.853 18.8505 130.905 27.2676C132.902 32.7182 128.381 39.6521 120.092 45.1027Z" fill="#A6CE39"/>
<path d="M138.478 49.3298L148.312 27.4529C148.387 27.2675 148.613 27.1192 148.839 27.1192H154.453C154.679 27.1192 154.867 27.2305 154.98 27.4529L164.814 49.3298C164.965 49.7006 164.701 50.1085 164.286 50.1085H159.012C158.786 50.1085 158.56 49.9601 158.484 49.7747L156.789 45.6589H146.39L144.695 49.7377C144.619 49.9601 144.393 50.0714 144.167 50.0714H138.968C138.591 50.1085 138.327 49.7006 138.478 49.3298ZM154.98 41.0982L151.627 32.8295L148.274 41.0982H154.98Z" fill="#A6CE39"/>
<path d="M167.338 49.5523V27.6754C167.338 27.3788 167.602 27.1192 167.903 27.1192H172.236C172.425 27.1192 172.613 27.2305 172.726 27.3788L180.94 40.8386L189.153 27.3788C189.266 27.2305 189.454 27.1192 189.643 27.1192H193.976C194.277 27.1192 194.541 27.3788 194.541 27.6754V49.5523C194.541 49.8489 194.277 50.1085 193.976 50.1085H189.304C189.002 50.1085 188.739 49.8489 188.739 49.5523V37.1307L182.447 47.5129C182.334 47.6612 182.145 47.7725 181.957 47.7725H179.847C179.659 47.7725 179.47 47.6612 179.357 47.5129L173.103 37.5015V49.5523C173.103 49.8489 172.839 50.1085 172.538 50.1085H167.866C167.564 50.1085 167.338 49.8489 167.338 49.5523Z" fill="#A6CE39"/>
<path d="M210.252 50.5534C206.786 50.5534 204.073 49.6264 202.151 47.7725C200.23 45.9185 199.288 43.3229 199.288 39.8745V27.6383C199.288 27.3417 199.552 27.0822 199.853 27.0822H205.053C205.354 27.0822 205.618 27.3417 205.618 27.6383V39.6521C205.618 43.5825 207.125 45.4735 210.252 45.4735C213.417 45.4735 214.999 43.5083 214.999 39.6521V27.6383C214.999 27.3417 215.263 27.0822 215.564 27.0822H220.651C220.952 27.0822 221.216 27.3417 221.216 27.6383V39.8375C221.216 43.2488 220.236 45.8814 218.315 47.7354C216.431 49.6264 213.681 50.5534 210.252 50.5534Z" fill="#A6CE39"/>
<path d="M234.064 50.5534C232.18 50.5534 230.296 50.3309 228.525 49.8489C227.018 49.4781 225.737 48.959 224.72 48.3657C224.494 48.2174 224.381 47.9208 224.494 47.6612L226.114 44.1016C226.152 44.0274 226.227 43.8791 226.453 43.842C226.679 43.7679 226.83 43.8791 226.867 43.8791C227.734 44.3982 228.751 44.8061 229.919 45.1769C231.351 45.6219 232.745 45.8073 234.139 45.8073C236.852 45.8073 238.208 45.1027 238.208 43.6937C238.208 43.1746 237.982 42.4701 236.965 42.0252C236.211 41.6914 235.006 41.3577 233.385 40.9869C231.615 40.6161 230.108 40.2083 228.94 39.7633C227.772 39.3554 226.754 38.6509 225.925 37.7239C225.097 36.797 224.682 35.5363 224.682 33.9789C224.682 32.607 225.059 31.3463 225.85 30.2339C226.604 29.1215 227.772 28.2316 229.316 27.6013C230.861 26.9338 232.783 26.6001 235.006 26.6001C236.55 26.6001 238.095 26.7855 239.564 27.1192C240.808 27.4159 241.938 27.7867 242.918 28.3058C243.181 28.4541 243.294 28.7507 243.181 29.0103L241.637 32.607C241.599 32.6811 241.524 32.8295 241.298 32.9036C241.109 32.9407 240.958 32.8665 240.921 32.8665C238.886 31.8654 236.889 31.3834 234.93 31.3834C233.536 31.3834 232.557 31.5688 231.878 32.0137C231.2 32.4587 230.861 33.0149 230.861 33.7194C230.861 34.2014 231.087 34.8688 232.067 35.3138C232.783 35.6475 233.988 35.9441 235.608 36.2779C237.417 36.6486 238.924 37.0565 240.092 37.5015C241.26 37.9093 242.239 38.6139 243.106 39.5038C243.935 40.3937 244.349 41.6544 244.349 43.2117C244.349 44.5836 243.973 45.8073 243.181 46.9196C242.428 48.032 241.26 48.9219 239.715 49.5894C238.208 50.2197 236.287 50.5534 234.064 50.5534Z" fill="#A6CE39"/>
</g>
<defs>
<filter id="filter0_ddddd_118_1543" x="-40.5" y="0" width="474" height="591.228" filterUnits="userSpaceOnUse" color-interpolation-filters="sRGB">
<feFlood flood-opacity="0" result="BackgroundImageFix"/>
<feColorMatrix in="SourceAlpha" type="matrix" values="0 0 0 0 0 0 0 0 0 0 0 0 0 0 0 0 0 0 127 0" result="hardAlpha"/>
<feOffset dy="17"/>
<feGaussianBlur stdDeviation="18.5"/>
<feColorMatrix type="matrix" values="0 0 0 0 0 0 0 0 0 0 0 0 0 0 0 0 0 0 0.2 0"/>
<feBlend mode="normal" in2="BackgroundImageFix" result="effect1_dropShadow_118_1543"/>
<feColorMatrix in="SourceAlpha" type="matrix" values="0 0 0 0 0 0 0 0 0 0 0 0 0 0 0 0 0 0 127 0" result="hardAlpha"/>
<feOffset dy="67"/>
<feGaussianBlur stdDeviation="33.5"/>
<feColorMatrix type="matrix" values="0 0 0 0 0 0 0 0 0 0 0 0 0 0 0 0 0 0 0.2 0"/>
<feBlend mode="normal" in2="effect1_dropShadow_118_1543" result="effect2_dropShadow_118_1543"/>
<feColorMatrix in="SourceAlpha" type="matrix" values="0 0 0 0 0 0 0 0 0 0 0 0 0 0 0 0 0 0 127 0" result="hardAlpha"/>
<feOffset dy="150"/>
<feGaussianBlur stdDeviation="45"/>
<feColorMatrix type="matrix" values="0 0 0 0 0 0 0 0 0 0 0 0 0 0 0 0 0 0 0.2 0"/>
<feBlend mode="normal" in2="effect2_dropShadow_118_1543" result="effect3_dropShadow_118_1543"/>
<feColorMatrix in="SourceAlpha" type="matrix" values="0 0 0 0 0 0 0 0 0 0 0 0 0 0 0 0 0 0 127 0" result="hardAlpha"/>
<feOffset dy="267"/>
<feGaussianBlur stdDeviation="53.5"/>
<feColorMatrix type="matrix" values="0 0 0 0 0 0 0 0 0 0 0 0 0 0 0 0 0 0 0.1 0"/>
<feBlend mode="normal" in2="effect3_dropShadow_118_1543" result="effect4_dropShadow_118_1543"/>
<feColorMatrix in="SourceAlpha" type="matrix" values="0 0 0 0 0 0 0 0 0 0 0 0 0 0 0 0 0 0 127 0" result="hardAlpha"/>
<feOffset dy="417"/>
<feGaussianBlur stdDeviation="58.5"/>
<feColorMatrix type="matrix" values="0 0 0 0 0 0 0 0 0 0 0 0 0 0 0 0 0 0 0.1 0"/>
<feBlend mode="normal" in2="effect4_dropShadow_118_1543" result="effect5_dropShadow_118_1543"/>
<feBlend mode="normal" in="SourceGraphic" in2="effect5_dropShadow_118_1543" result="shape"/>
</filter>
<clipPath id="clip0_118_1543">
<rect width="240" height="37.2277" fill="white" transform="translate(76.5 20)"/>
</clipPath>
</defs>
</svg>
